<svg version="1.1" id="Logo" xmlns="http://www.w3.org/2000/svg" x="0" y="0" viewBox="0 0 555 150" xml:space="preserve"><style>.st0{fill:#232832}.st2{fill:#ff6b00}</style><path class="st0" d="M190.6 82.9V48.7c0-.5.3-.8.8-.8h7.8c.5 0 .8.3.8.8v34.4c0 12.6-8.5 19.9-20 19.9-11.4 0-20-7.3-20-19.9V48.7c0-.5.3-.8.8-.8h7.8c.5 0 .8.3.8.8v34.2c0 7.5 4.4 11.6 10.5 11.6 6.3 0 10.7-4.1 10.7-11.6zM208 95.8c-.3-.3-.5-.8-.2-1.2l4.9-5.7c.3-.4.8-.4 1.1-.1 3.5 2.8 8.7 5.7 14.8 5.7 6.5 0 10.2-3.3 10.2-7.8 0-3.9-2.4-6.5-9.9-7.5l-2.9-.4c-10.5-1.4-16.4-6.5-16.4-15.5 0-9.8 7.2-16.4 18.4-16.4 6.8 0 13.3 2.2 17.6 5.4.4.3.5.6.2 1.1l-3.8 5.9c-.3.4-.7.5-1.1.2-4.4-2.9-8.5-4.2-13-4.2-5.5 0-8.5 3-8.5 7.3 0 3.7 2.6 6.3 10 7.3l2.9.4c10.5 1.4 16.2 6.4 16.2 15.7 0 9.7-6.9 16.8-20.4 16.8-8.1.2-15.9-3-20.1-7zM257.3 48.7c0-.5.3-.8.8-.8h34c.5 0 .8.3.8.8v6.9c0 .5-.3.8-.8.8h-24.9c-.3 0-.5.2-.5.5v13.2c0 .3.2.5.5.5h21c.5 0 .8.3.8.8v6.9c0 .5-.3.8-.8.8h-21c-.3 0-.5.2-.5.5v13.7c0 .3.2.5.5.5h24.9c.5 0 .8.3.8.8v6.9c0 .5-.3.8-.8.8h-34c-.5 0-.8-.3-.8-.8V48.7zM335.2 102.1c-.6 0-1-.2-1.2-.8l-10.4-21.1h-9.3c-.3 0-.5.2-.5.5v20.7c0 .5-.3.8-.8.8h-7.8c-.5 0-.8-.3-.8-.8V48.7c0-.5.3-.8.8-.8h21c10 0 17.3 6.6 17.3 16.2 0 7.1-4.1 12.6-10.3 14.9l11.4 22.1c.3.6 0 1-.6 1h-8.8zm-1-38c0-4.7-3.4-7.7-8.3-7.7h-11.6c-.3 0-.5.2-.5.5v14.4c0 .3.2.5.5.5h11.6c4.9-.1 8.3-3.1 8.3-7.7zM368 102.1c-.5 0-.8-.3-1-.8l-17.2-52.6c-.2-.5.2-.8.6-.8h7.7c.6 0 .9.2 1 .8l12.1 38.4h.2l11.7-38.4c.2-.6.5-.8 1-.8h7.7c.5 0 .8.3.6.8l-17.2 52.6c-.2.5-.5.8-1 .8H368zM399.7 89.9c-1.1-3.4-1.4-6.4-1.4-14.9s.3-11.6 1.4-14.9c2.8-8.6 9.8-13.1 19.2-13.1 9.4 0 16.4 4.5 19.2 13.1 1.1 3.4 1.4 6.4 1.4 14.9s-.3 11.6-1.4 14.9c-2.8 8.6-9.8 13.1-19.2 13.1-9.4 0-16.4-4.5-19.2-13.1zm29.3-2.5c.6-2 1-4.8 1-12.4 0-7.7-.3-10.4-1-12.4-1.5-4.4-4.7-7.1-10.1-7.1-5.3 0-8.5 2.7-10.1 7.1-.6 2-1 4.7-1 12.4s.3 10.4 1 12.4c1.5 4.4 4.7 7.1 10.1 7.1 5.3 0 8.5-2.7 10.1-7.1zM450.8 48.7c0-.5.3-.8.8-.8h7.8c.5 0 .8.3.8.8v52.6c0 .5-.3.8-.8.8h-7.8c-.5 0-.8-.3-.8-.8V48.7zM471.6 75c0-8.6.3-11.3 1.4-14.7 2.8-8.9 9.7-13.3 18.8-13.3 8.7 0 15.2 4.5 18.4 11.6.2.4 0 .8-.4 1l-6.8 3.3c-.5.2-.9 0-1-.4-1.8-3.8-4.8-7-10.1-7-5.2 0-8.2 2.8-9.7 7.2-.7 2.2-1 4.4-1 12.4s.2 10.1 1 12.4c1.5 4.4 4.5 7.2 9.7 7.2 5.3 0 8.4-3.2 10.1-7 .2-.4.6-.6 1-.4l6.8 3.3c.4.2.6.6.4 1-3.1 7.2-9.7 11.6-18.4 11.6-9.2 0-16-4.5-18.8-13.3-1.1-3.6-1.4-6.3-1.4-14.9zM519.4 48.7c0-.5.3-.8.8-.8h34c.5 0 .8.3.8.8v6.9c0 .5-.3.8-.8.8h-24.9c-.3 0-.5.2-.5.5v13.2c0 .3.2.5.5.5h21c.5 0 .8.3.8.8v6.9c0 .5-.3.8-.8.8h-21c-.3 0-.5.2-.5.5v13.7c0 .3.2.5.5.5h24.9c.5 0 .8.3.8.8v6.9c0 .5-.3.8-.8.8h-34c-.5 0-.8-.3-.8-.8V48.7z"/><g><linearGradient id="SVGID_1_" gradientUnits="userSpaceOnUse" x1="45.377" y1="132.011" x2="45.377" y2="60.607"><stop offset="0" stop-color="#d2341b"/><stop offset=".182" stop-color="#e14612"/><stop offset=".46" stop-color="#f15a08"/><stop offset=".735" stop-color="#fc6702"/><stop offset="1" stop-color="#ff6b00"/></linearGradient><path d="M49.7 105.3v-4.8-.2c0-5-5-9.9-5-14.9 0-3.5 2.4-6.9 3.9-10.4.7-1.4 1.1-2.9 1.1-4.5 0-5.5-4.4-9.9-9.9-9.9s-9.9 4.4-9.9 9.9c0 1.6.4 3.2 1.1 4.5 1.5 3.5 3.9 6.9 3.9 10.4 0 5-5 9.9-5 14.9v5c0 9.4 2.9 18.2 8 25.6 13.7 4.3 23.2-4.7 23.2-4.7-7.1-4.6-11.4-12.3-11.4-20.9z" fill="url(#SVGID_1_)"/><circle class="st2" cx="39.7" cy="43.7" r="9.9"/><circle class="st2" cx="39.7" cy="16.9" r="9.9"/><circle class="st2" cx="9.9" cy="43.7" r="9.9"/><circle class="st2" cx="9.9" cy="16.9" r="9.9"/><path class="st2" d="M94.4 0L69.5 16.6v88.7c0 13.7-11.1 24.8-24.8 24.8S19.9 119 19.9 105.3v-4.6-.3c0-5-5-9.9-5-14.9 0-3.5 2.4-6.9 3.9-10.4.7-1.4 1.1-2.9 1.1-4.5 0-5.5-4.4-9.9-9.9-9.9S.1 65.1.1 70.6c0 1.6.4 3.2 1.1 4.5C2.6 78.5 5 82 5 85.4c0 5-5 9.9-5 14.9V105.2C0 129.9 20.1 150 44.7 150s44.7-20.1 44.7-44.7V27.2l5-3.3 5 3.3v77.1c0 16.5-5 33.1-23.8 44.7 19.2 0 43.1-21.6 43.7-49.6V16.6L94.4 0z"/></g></svg>